<svg xmlns="http://www.w3.org/2000/svg" xmlns:xlink="http://www.w3.org/1999/xlink" width="53" height="61" viewBox="0 0 53 61">
  <defs>
    <clipPath id="clip-facebook">
      <rect width="53" height="61"/>
    </clipPath>
  </defs>
  <g id="facebook" clip-path="url(#clip-facebook)">
    <g id="Grupo_86" data-name="Grupo 86" transform="translate(-5.445 -4.294)">
      <g id="Componente_2_8" data-name="Componente 2 – 8" transform="translate(4.295 8.295)">
        <path id="Trazado_4" data-name="Trazado 4" d="M31.15,49.535a21.215,21.215,0,1,0-5.3,0V33.8h-5.3V28.5h5.3V24.117c0-3.543.371-4.828,1.06-6.124a7.224,7.224,0,0,1,3.01-3.008,10.5,10.5,0,0,1,4.471-1.01,17.112,17.112,0,0,1,3.387.212v5.035H36.45c-2.43,0-3.434.114-4.033.435a1.927,1.927,0,0,0-.832.832c-.318.6-.435,1.192-.435,3.625V28.5h6.625L36.45,33.8h-5.3ZM28.5,55A26.5,26.5,0,1,1,55,28.5,26.5,26.5,0,0,1,28.5,55Z" transform="translate(-2 -2)" fill="#00365f"/>
      </g>
    </g>
  </g>
</svg>
