<svg xmlns="http://www.w3.org/2000/svg" width="53" height="53" viewBox="0 0 53 53">
  <g id="Grupo_85" data-name="Grupo 85" transform="translate(-5849 -43)">
    <g id="shopping-cart-2-line" transform="translate(5849 43)">
      <path id="Trazado_85" data-name="Trazado 85" d="M0,0H53V53H0Z" fill="none"/>
      <path id="Trazado_86" data-name="Trazado 86" d="M7.919,12.041.757,4.882,3.882,1.757l7.159,7.162H44.7a2.208,2.208,0,0,1,2.116,2.842l-5.3,17.667A2.208,2.208,0,0,1,39.4,31H12.335v4.417H36.627v4.417h-26.5a2.208,2.208,0,0,1-2.208-2.208Zm4.417,1.294v13.25H37.758l3.975-13.25Zm-1.1,35.333a3.313,3.313,0,1,1,3.313-3.313A3.313,3.313,0,0,1,11.231,48.669Zm26.5,0a3.313,3.313,0,1,1,3.313-3.313A3.313,3.313,0,0,1,37.731,48.669Z" transform="translate(0.915 2.123)" fill="#fff"/>
    </g>
  </g>
</svg>
