<svg xmlns="http://www.w3.org/2000/svg" xmlns:xlink="http://www.w3.org/1999/xlink" width="53" height="61" viewBox="0 0 53 61">
  <defs>
    <clipPath id="clip-instagram">
      <rect width="53" height="61"/>
    </clipPath>
  </defs>
  <g id="instagram" clip-path="url(#clip-instagram)">
    <g id="Grupo_87" data-name="Grupo 87" transform="translate(-5.004 -3.854)">
      <g id="Componente_5_8" data-name="Componente 5 – 8" transform="translate(-0.146 3.854)">
        <path id="Trazado_9" data-name="Trazado 9" d="M0,0H61V61H0Z" fill="none"/>
        <path id="Trazado_10" data-name="Trazado 10" d="M27.417,19.792a7.625,7.625,0,1,0,7.625,7.625A7.625,7.625,0,0,0,27.417,19.792Zm0-5.083A12.708,12.708,0,1,1,14.708,27.417,12.708,12.708,0,0,1,27.417,14.708Zm16.521-.635A3.177,3.177,0,1,1,40.76,10.9,3.177,3.177,0,0,1,43.938,14.073ZM27.417,7.083c-6.288,0-7.315.018-10.24.147a13.808,13.808,0,0,0-4.57.844A7.336,7.336,0,0,0,9.861,9.861a7.345,7.345,0,0,0-1.789,2.745,13.789,13.789,0,0,0-.841,4.57c-.132,2.806-.147,3.787-.147,10.24,0,6.288.018,7.315.147,10.24a13.863,13.863,0,0,0,.841,4.567A7.9,7.9,0,0,0,12.6,46.756a13.837,13.837,0,0,0,4.575.846c2.806.132,3.787.147,10.24.147,6.288,0,7.315-.018,10.24-.147a13.89,13.89,0,0,0,4.567-.841,7.424,7.424,0,0,0,2.745-1.784,7.349,7.349,0,0,0,1.789-2.745,13.9,13.9,0,0,0,.844-4.575c.132-2.806.147-3.787.147-10.24,0-6.288-.018-7.315-.147-10.24a13.834,13.834,0,0,0-.844-4.57,7.4,7.4,0,0,0-1.787-2.745,7.33,7.33,0,0,0-2.745-1.789,13.8,13.8,0,0,0-4.57-.841C34.851,7.1,33.87,7.083,27.417,7.083Zm0-5.083c6.906,0,7.767.025,10.477.153a18.724,18.724,0,0,1,6.171,1.182,12.392,12.392,0,0,1,4.5,2.931,12.475,12.475,0,0,1,2.931,4.5,18.776,18.776,0,0,1,1.182,6.171c.119,2.709.153,3.571.153,10.477s-.025,7.767-.153,10.477A18.79,18.79,0,0,1,51.5,44.065,12.977,12.977,0,0,1,44.065,51.5a18.776,18.776,0,0,1-6.171,1.182c-2.709.119-3.571.153-10.477.153s-7.767-.025-10.477-.153A18.79,18.79,0,0,1,10.769,51.5a12.977,12.977,0,0,1-7.434-7.434,18.71,18.71,0,0,1-1.182-6.171C2.033,35.184,2,34.322,2,27.417s.025-7.767.153-10.477a18.71,18.71,0,0,1,1.182-6.171,12.4,12.4,0,0,1,2.931-4.5,12.447,12.447,0,0,1,4.5-2.931A18.71,18.71,0,0,1,16.94,2.153C19.649,2.033,20.511,2,27.417,2Z" transform="translate(3.083 3.083)" fill="#00365f"/>
      </g>
    </g>
  </g>
</svg>
