<svg xmlns="http://www.w3.org/2000/svg" xmlns:xlink="http://www.w3.org/1999/xlink" width="53" height="61" viewBox="0 0 53 61">
  <defs>
    <clipPath id="clip-youtube">
      <rect width="53" height="61"/>
    </clipPath>
  </defs>
  <g id="youtube" clip-path="url(#clip-youtube)">
    <g id="Grupo_89" data-name="Grupo 89" transform="translate(-3.854 -3.854)">
      <g id="Componente_15_8" data-name="Componente 15 – 8" transform="translate(0 3.854)">
        <path id="Trazado_29" data-name="Trazado 29" d="M0,0H61V61H0Z" fill="none"/>
        <path id="Trazado_30" data-name="Trazado 30" d="M46.749,11.612a2.065,2.065,0,0,0-1.37-1.5C44.268,9.8,38.854,9.083,27.417,9.083S10.571,9.8,9.45,10.108a2.068,2.068,0,0,0-1.365,1.5,63.445,63.445,0,0,0-1,12.721,63.53,63.53,0,0,0,1,12.724,2.059,2.059,0,0,0,1.367,1.5c1.118.315,6.527,1.027,17.965,1.027s16.849-.712,17.967-1.024a2.068,2.068,0,0,0,1.365-1.5,63.542,63.542,0,0,0,1-12.721A63.567,63.567,0,0,0,46.749,11.612Zm4.923-1.263c1.162,4.529,1.162,13.984,1.162,13.984s0,9.455-1.162,13.984a7.145,7.145,0,0,1-4.926,5.139c-4.344,1.21-19.329,1.21-19.329,1.21s-14.978,0-19.329-1.21a7.144,7.144,0,0,1-4.926-5.139C2,33.788,2,24.333,2,24.333s0-9.455,1.162-13.984A7.145,7.145,0,0,1,8.087,5.21C12.439,4,27.417,4,27.417,4S42.4,4,46.746,5.21a7.144,7.144,0,0,1,4.926,5.139ZM22.333,33.229V15.438l15.25,8.9Z" transform="translate(3.083 6.167)" fill="#00365f"/>
      </g>
    </g>
  </g>
</svg>
